<?xml version="1.0" encoding="UTF-8" standalone="no"?>
<!-- Created with Inkscape (http://www.inkscape.org/) -->

<svg
   xmlns:dc="http://purl.org/dc/elements/1.1/"
   xmlns:cc="http://creativecommons.org/ns#"
   xmlns:rdf="http://www.w3.org/1999/02/22-rdf-syntax-ns#"
   xmlns:svg="http://www.w3.org/2000/svg"
   xmlns="http://www.w3.org/2000/svg"
   version="1.0"
   width="300"
   height="200"
   viewBox="-108.198 0 571.20678 337.07865"
   id="Layer_1"
   xml:space="preserve"><metadata
     id="metadata34"><rdf:RDF><cc:Work
         rdf:about=""><dc:format>image/svg+xml</dc:format><dc:type
           rdf:resource="http://purl.org/dc/dcmitype/StillImage" /><dc:title></dc:title></cc:Work></rdf:RDF></metadata><defs
     id="defs4081" /><text
     x="387.68457"
     y="151.01358"
     id="text2631"
     xml:space="preserve"
     style="font-size:45.90352249px;font-style:normal;font-weight:normal;fill:#000000;fill-opacity:1;stroke:none;font-family:Arial"><tspan
       x="387.68457"
       y="151.01358"
       id="tspan2633">1</tspan></text>
<text
     x="-61.004631"
     y="150.56531"
     id="text2631-4"
     xml:space="preserve"
     style="font-size:45.90352249px;font-style:normal;font-weight:normal;fill:#000000;fill-opacity:1;stroke:none;font-family:Arial"><tspan
       x="-61.004631"
       y="150.56531"
       id="tspan2633-5">5</tspan></text>
<text
     x="387.46042"
     y="221.92171"
     id="text2631-3"
     xml:space="preserve"
     style="font-size:45.90352249px;font-style:normal;font-weight:normal;fill:#000000;fill-opacity:1;stroke:none;font-family:Arial"><tspan
       x="387.46042"
       y="221.92171"
       id="tspan2633-3">6</tspan></text>
<text
     x="-61.318428"
     y="221.92171"
     id="text2631-1"
     xml:space="preserve"
     style="font-size:45.90352249px;font-style:normal;font-weight:normal;fill:#000000;fill-opacity:1;stroke:none;font-family:Arial"><tspan
       x="-61.318428"
       y="221.92171"
       id="tspan2633-0">9</tspan></text>
<path
     d="m 315.22823,9.3789049 0,77.1129131"
     id="path3857-5"
     style="fill:none;stroke:#000000;stroke-width:3.80804515;stroke-linecap:butt;stroke-linejoin:miter;stroke-miterlimit:4;stroke-opacity:1;stroke-dasharray:none" /><path
     d="m 246.73282,9.3789049 0,77.1129031"
     id="path3857-5-5"
     style="fill:none;stroke:#000000;stroke-width:3.80804515;stroke-linecap:butt;stroke-linejoin:miter;stroke-miterlimit:4;stroke-opacity:1;stroke-dasharray:none" /><path
     d="m 178.2374,9.3789049 0,77.1129131"
     id="path3857-5-4"
     style="fill:none;stroke:#000000;stroke-width:3.80804515;stroke-linecap:butt;stroke-linejoin:miter;stroke-miterlimit:4;stroke-opacity:1;stroke-dasharray:none" /><path
     d="m 109.74196,9.3789049 0,77.1129031"
     id="path3857-5-49"
     style="fill:none;stroke:#000000;stroke-width:3.80804515;stroke-linecap:butt;stroke-linejoin:miter;stroke-miterlimit:4;stroke-opacity:1;stroke-dasharray:none" /><path
     d="m 41.246553,9.3789049 0,77.1129131"
     id="path3857-5-3"
     style="fill:none;stroke:#000000;stroke-width:3.80804515;stroke-linecap:butt;stroke-linejoin:miter;stroke-miterlimit:4;stroke-opacity:1;stroke-dasharray:none" /><path
     d="m 278.62441,332.20019 0,-77.11291"
     id="path3857-5-0"
     style="fill:none;stroke:#000000;stroke-width:3.80804515;stroke-linecap:butt;stroke-linejoin:miter;stroke-miterlimit:4;stroke-opacity:1;stroke-dasharray:none" /><path
     d="m 210.12901,332.20019 0,-77.1129"
     id="path3857-5-5-8"
     style="fill:none;stroke:#000000;stroke-width:3.80804515;stroke-linecap:butt;stroke-linejoin:miter;stroke-miterlimit:4;stroke-opacity:1;stroke-dasharray:none" /><path
     d="m 141.63359,332.20019 0,-77.11291"
     id="path3857-5-4-3"
     style="fill:none;stroke:#000000;stroke-width:3.80804515;stroke-linecap:butt;stroke-linejoin:miter;stroke-miterlimit:4;stroke-opacity:1;stroke-dasharray:none" /><path
     d="m 73.138153,332.20019 0,-77.1129"
     id="path3857-5-49-1"
     style="fill:none;stroke:#000000;stroke-width:3.80804515;stroke-linecap:butt;stroke-linejoin:miter;stroke-miterlimit:4;stroke-opacity:1;stroke-dasharray:none" /><g
     transform="translate(-65.971017,-16.156167)"
     id="g4037"><path
       d="m 102.15277,97.829231 c -31.405562,0 -52.630714,23.948699 -47.168697,53.233589 l 13.1787,70.53802 c 5.470653,29.28286 35.643257,53.25808 67.046647,53.25808 l 213.81426,0 c 31.39909,0 61.56955,-23.97522 67.04666,-53.25808 l 13.17653,-70.53802 C 434.7089,121.77793 413.49451,97.829231 382.07819,97.829231 l -279.92542,0 z"
       id="path4052"
       style="fill:#ffffff;fill-opacity:1;stroke:#000000;stroke-width:5.44744778" /><g
       transform="matrix(2.3960461,0,0,2.2683486,98.288426,16.753203)"
       id="g4060"><circle
         cx="3.0239999"
         cy="60.5"
         r="5.8189998"
         id="circle4062"
         style="fill:#ffffff;fill-opacity:1;stroke:#000000;stroke-width:2.59739995" /><circle
         cx="31.67"
         cy="60.5"
         r="5.8189998"
         id="circle4064"
         style="fill:#ffffff;fill-opacity:1;stroke:#000000;stroke-width:2.59739995" /><circle
         cx="60.310001"
         cy="60.5"
         r="5.8150001"
         id="circle4066"
         style="fill:#ffffff;fill-opacity:1;stroke:#000000;stroke-width:2.59739995" /><path
         d="m 88.945,54.682 c 3.214,0 5.818,2.606 5.818,5.82 0,3.213 -2.604,5.817 -5.818,5.817 -3.209,0 -5.816,-2.604 -5.816,-5.817 0,-3.214 2.607,-5.82 5.816,-5.82 z"
         id="path4068"
         style="fill:#ffffff;fill-opacity:1;stroke:#000000;stroke-width:2.59739995" /><circle
         cx="117.588"
         cy="60.5"
         r="5.8189998"
         id="circle4070"
         style="fill:#ffffff;fill-opacity:1;stroke:#000000;stroke-width:2.59739995" /><circle
         cx="17.348"
         cy="89.436996"
         r="5.8169999"
         id="circle4072"
         style="fill:#ffffff;fill-opacity:1;stroke:#000000;stroke-width:2.59739995" /><circle
         cx="45.990002"
         cy="89.436996"
         r="5.8169999"
         id="circle4074"
         style="fill:#ffffff;fill-opacity:1;stroke:#000000;stroke-width:2.59739995" /><circle
         cx="74.624001"
         cy="89.436996"
         r="5.8169999"
         id="circle4076"
         style="fill:#ffffff;fill-opacity:1;stroke:#000000;stroke-width:2.59739995" /><path
         d="m 103.271,83.619 c 3.211,0 5.812,2.604 5.812,5.815 0,3.212 -2.601,5.816 -5.812,5.816 -3.216,0 -5.816,-2.604 -5.816,-5.816 0,-3.21 2.601,-5.815 5.816,-5.815 z"
         id="path4078"
         style="fill:#ffffff;fill-opacity:1;stroke:#000000;stroke-width:2.59739995" /></g></g></svg>