<?xml version="1.0" encoding="UTF-8" standalone="no"?>
<!-- Created with Inkscape (http://www.inkscape.org/) -->

<svg
   xmlns:dc="http://purl.org/dc/elements/1.1/"
   xmlns:cc="http://creativecommons.org/ns#"
   xmlns:rdf="http://www.w3.org/1999/02/22-rdf-syntax-ns#"
   xmlns:svg="http://www.w3.org/2000/svg"
   xmlns="http://www.w3.org/2000/svg"
   version="1.0"
   width="160"
   height="160"
   id="svg5448">
  <defs
     id="defs5450" />
  <metadata
     id="metadata5453">
    <rdf:RDF>
      <cc:Work
         rdf:about="">
        <dc:format>image/svg+xml</dc:format>
        <dc:type
           rdf:resource="http://purl.org/dc/dcmitype/StillImage" />
        <dc:title></dc:title>
      </cc:Work>
    </rdf:RDF>
  </metadata>
  <path
     d="m 144.78917,79.7441 a 50.701492,50.701492 0 0 1 -101.402981,0 50.701492,50.701492 0 1 1 101.402981,0 z"
     id="path2993"
     style="fill:#ffffff;fill-opacity:1;stroke:#000000;stroke-width:1.6249913;stroke-linecap:butt;stroke-linejoin:miter;stroke-miterlimit:4;stroke-opacity:1;stroke-dasharray:none;stroke-dashoffset:0" />
  <path
     d="m 17.140923,112.51281 47.685256,0 0,-66.024151"
     id="path2995"
     style="fill:none;stroke:#000000;stroke-width:1.6249913px;stroke-linecap:butt;stroke-linejoin:miter;stroke-opacity:1" />
  <path
     d="m 74.30578,45.610006 0,68.184034"
     id="path2997"
     style="fill:none;stroke:#000000;stroke-width:1.6249913px;stroke-linecap:butt;stroke-linejoin:miter;stroke-opacity:1" />
  <path
     d="m 74.439203,90.67818 23.421945,23.29498 0,40.54797"
     id="path2999"
     style="fill:none;stroke:#000000;stroke-width:1.6249913px;stroke-linecap:butt;stroke-linejoin:miter;stroke-opacity:1" />
  <path
     d="M 74.593039,70.596813 C 77.178386,69.447782 97.573887,47.61597 97.573887,47.61597 l 0,-41.166696"
     id="path3001"
     style="fill:none;stroke:#000000;stroke-width:1.6249913px;stroke-linecap:butt;stroke-linejoin:miter;stroke-opacity:1" />
  <path
     d="m 97.573887,42.445279 15.512073,0 0,76.124051 -15.512073,0"
     id="path3779"
     style="fill:none;stroke:#000000;stroke-width:1.6249913px;stroke-linecap:butt;stroke-linejoin:miter;stroke-opacity:1" />
  <path
     d="m 103.21604,92.9439 20.63647,0 -10.82801,-18.863496 z"
     id="path3009"
     style="fill:#ffffff;fill-opacity:1;stroke:#000000;stroke-width:1.6249913px;stroke-linecap:butt;stroke-linejoin:miter;stroke-opacity:1" />
  <path
     d="m 102.28469,72.574671 21.93738,0"
     id="path3781"
     style="fill:none;stroke:#000000;stroke-width:1.6249913px;stroke-linecap:butt;stroke-linejoin:miter;stroke-opacity:1" />
  <path
     d="m 99.87197,118.3898 a 2.0467317,2.0467317 0 1 1 -4.093461,0 2.0467317,2.0467317 0 1 1 4.093461,0 z"
     id="path3783"
     style="fill:#ffffff;fill-opacity:1;stroke:#000000;stroke-width:1.6249913;stroke-linecap:butt;stroke-linejoin:miter;stroke-miterlimit:4;stroke-opacity:1;stroke-dasharray:none;stroke-dashoffset:0" />
  <path
     d="m 99.69243,42.517096 a 2.0467317,2.0467317 0 1 1 -4.09346,0 2.0467317,2.0467317 0 1 1 4.09346,0 z"
     id="path3783-7"
     style="fill:#ffffff;fill-opacity:1;stroke:#000000;stroke-width:1.6249913;stroke-linecap:butt;stroke-linejoin:miter;stroke-miterlimit:4;stroke-opacity:1;stroke-dasharray:none;stroke-dashoffset:0" />
  <path
     d="m 92.475012,103.77541 -4.739801,5.24252 8.761449,3.44711 z"
     id="path3821"
     style="fill:#000000;fill-opacity:1;stroke:#000000;stroke-width:1.6249913px;stroke-linecap:butt;stroke-linejoin:miter;stroke-opacity:1" />
</svg>
