<?xml version="1.0" encoding="UTF-8" standalone="no"?>
<!-- Created with Inkscape (http://www.inkscape.org/) -->

<svg
   xmlns:dc="http://purl.org/dc/elements/1.1/"
   xmlns:cc="http://creativecommons.org/ns#"
   xmlns:rdf="http://www.w3.org/1999/02/22-rdf-syntax-ns#"
   xmlns:svg="http://www.w3.org/2000/svg"
   xmlns="http://www.w3.org/2000/svg"
   version="1.0"
   width="84.082672"
   height="84.082672"
   id="svg5448">
  <defs
     id="defs5450" />
  <metadata
     id="metadata5453">
    <rdf:RDF>
      <cc:Work
         rdf:about="">
        <dc:format>image/svg+xml</dc:format>
        <dc:type
           rdf:resource="http://purl.org/dc/dcmitype/StillImage" />
        <dc:title></dc:title>
      </cc:Work>
    </rdf:RDF>
  </metadata>
  <path
     d="m 79.019182,41.214325 a 31.201086,31.201086 0 1 1 -62.402172,0 31.201086,31.201086 0 1 1 62.402172,0 z"
     transform="translate(2.3624368,0.23743691)"
     id="path2993"
     style="fill:#ffffff;fill-opacity:1;stroke:#000000;stroke-width:1;stroke-linecap:butt;stroke-linejoin:miter;stroke-miterlimit:4;stroke-opacity:1;stroke-dasharray:none;stroke-dashoffset:0" />
  <path
     d="m 2.8284271,60.924925 29.3449309,0 0,-36.707368"
     id="path2995"
     style="fill:none;stroke:#000000;stroke-width:1px;stroke-linecap:butt;stroke-linejoin:miter;stroke-opacity:1" />
  <path
     d="m 38.00699,23.599916 0,37.651912"
     id="path2997"
     style="fill:none;stroke:#000000;stroke-width:1px;stroke-linecap:butt;stroke-linejoin:miter;stroke-opacity:1" />
  <path
     d="m 38.089097,48.180458 14.413582,14.335457 0,21.036427"
     id="path2999"
     style="fill:none;stroke:#000000;stroke-width:1px;stroke-linecap:butt;stroke-linejoin:miter;stroke-opacity:1" />
  <path
     d="M 38.183766,35.822634 C 39.774757,35.115528 52.325902,21.680499 52.325902,21.680499 l 0,-20.3293204"
     id="path3001"
     style="fill:none;stroke:#000000;stroke-width:1px;stroke-linecap:butt;stroke-linejoin:miter;stroke-opacity:1" />
  <path
     d="m 52.325902,18.498518 9.545942,0 0,46.845825 -9.545942,0"
     id="path3779"
     style="fill:none;stroke:#000000;stroke-width:1px;stroke-linecap:butt;stroke-linejoin:miter;stroke-opacity:1" />
  <path
     d="m 55.798016,49.574763 12.699432,0 -6.663423,-11.608375 z"
     id="path3009"
     style="fill:#ffffff;fill-opacity:1;stroke:#000000;stroke-width:1px;stroke-linecap:butt;stroke-linejoin:miter;stroke-opacity:1" />
  <path
     d="m 55.224874,37.039779 13.5,0"
     id="path3781"
     style="fill:none;stroke:#000000;stroke-width:1px;stroke-linecap:butt;stroke-linejoin:miter;stroke-opacity:1" />
  <path
     d="m 51.176854,64.836113 a 1.259534,1.259534 0 1 1 -2.519068,0 1.259534,1.259534 0 1 1 2.519068,0 z"
     transform="translate(2.5632621,0.39774756)"
     id="path3783"
     style="fill:#ffffff;fill-opacity:1;stroke:#000000;stroke-width:1;stroke-linecap:butt;stroke-linejoin:miter;stroke-miterlimit:4;stroke-opacity:1;stroke-dasharray:none;stroke-dashoffset:0" />
  <path
     d="m 51.176854,64.836113 a 1.259534,1.259534 0 1 1 -2.519068,0 1.259534,1.259534 0 1 1 2.519068,0 z"
     transform="translate(2.4527759,-46.2934)"
     id="path3783-7"
     style="fill:#ffffff;fill-opacity:1;stroke:#000000;stroke-width:1;stroke-linecap:butt;stroke-linejoin:miter;stroke-miterlimit:4;stroke-opacity:1;stroke-dasharray:none;stroke-dashoffset:0" />
  <path
     d="m 49.188116,56.240343 -2.916816,3.226175 5.39169,2.121319 z"
     id="path3821"
     style="fill:#000000;fill-opacity:1;stroke:#000000;stroke-width:1px;stroke-linecap:butt;stroke-linejoin:miter;stroke-opacity:1" />
</svg>
