<?xml version="1.0" encoding="UTF-8" standalone="no"?>
<!-- Created with Inkscape (http://www.inkscape.org/) -->

<svg
   xmlns:dc="http://purl.org/dc/elements/1.1/"
   xmlns:cc="http://creativecommons.org/ns#"
   xmlns:rdf="http://www.w3.org/1999/02/22-rdf-syntax-ns#"
   xmlns:svg="http://www.w3.org/2000/svg"
   xmlns="http://www.w3.org/2000/svg"
   xmlns:xlink="http://www.w3.org/1999/xlink"
   version="1.1"
   width="48.869999"
   height="9.8699999"
   id="svg4923">
  <g
     transform="translate(0,-1042.4923)"
     id="layer1">
    <path
       d="m 10.8125,4.0262499 a 1.03125,1.03125 0 1 1 -2.0625,0 1.03125,1.03125 0 1 1 2.0625,0 z"
       transform="matrix(3.4359341,0,0,3.4359341,9.402756,1034.0992)"
       id="path5550-3"
       style="fill:#000000;fill-opacity:1;stroke:none" />
    <path
       d="m 10.8125,4.0262499 a 1.03125,1.03125 0 1 1 -2.0625,0 1.03125,1.03125 0 1 1 2.0625,0 z"
       transform="matrix(3.4359341,0,0,3.4359341,-9.8769241,1034.0992)"
       id="path5550-0"
       style="fill:#000000;fill-opacity:1;stroke:none" />
    <path
       d="m 10.8125,4.0262499 a 1.03125,1.03125 0 1 1 -2.0625,0 1.03125,1.03125 0 1 1 2.0625,0 z"
       transform="matrix(3.4359341,0,0,3.4359341,-29.178597,1034.0992)"
       id="path5550"
       style="fill:#000000;fill-opacity:1;stroke:none" />
    <path
       d="m 193,473.86218 a 29.5,29.5 0 1 1 -59,0 29.5,29.5 0 1 1 59,0 z"
       transform="matrix(0.09008408,0,0,0.09008408,-10.299613,1005.2458)"
       id="path4931"
       style="fill:#ffffff;fill-opacity:1;stroke:none" />
    <path
       d="m 193,473.86218 a 29.5,29.5 0 1 1 -59,0 29.5,29.5 0 1 1 59,0 z"
       transform="matrix(0.09008408,0,0,0.09008408,8.9759775,1005.2458)"
       id="path4931-7"
       style="fill:#ffffff;fill-opacity:1;stroke:none" />
    <path
       d="m 193,473.86218 a 29.5,29.5 0 1 1 -59,0 29.5,29.5 0 1 1 59,0 z"
       transform="matrix(0.09008408,0,0,0.09008408,28.251568,1005.2458)"
       id="path4931-3"
       style="fill:#ffffff;fill-opacity:1;stroke:none" />
  </g>
</svg>
